<svg width="800" height="1568" viewBox="0 0 800 1568" fill="none" xmlns="http://www.w3.org/2000/svg">
<g clip-path="url(#clip0_2422_1963)">
<g filter="url(#filter0_f_2422_1963)">
<ellipse cx="67.5" cy="525.5" rx="191.5" ry="192.5" transform="rotate(90 67.5 525.5)" fill="white" fill-opacity="0.25"/>
</g>
<g filter="url(#filter1_f_2422_1963)">
<ellipse cx="760" cy="1023" rx="203" ry="204" transform="rotate(90 760 1023)" fill="#DFBC80" fill-opacity="0.25"/>
</g>
<path d="M762.5 313L762.5 726.27C762.5 745.751 755.391 764.563 742.508 779.176L711.887 813.906C696.701 831.132 674.844 841 651.88 841L150.175 841C130.727 841 111.945 848.084 97.3415 860.929L64.166 890.107C46.8972 905.295 37 927.181 37 950.178L36.9999 1554.5" stroke="url(#paint0_linear_2422_1963)" stroke-width="1.64096"/>
</g>
<defs>
<filter id="filter0_f_2422_1963" x="-425" y="34" width="985" height="983" filterUnits="userSpaceOnUse" color-interpolation-filters="sRGB">
<feFlood flood-opacity="0" result="BackgroundImageFix"/>
<feBlend mode="normal" in="SourceGraphic" in2="BackgroundImageFix" result="shape"/>
<feGaussianBlur stdDeviation="150" result="effect1_foregroundBlur_2422_1963"/>
</filter>
<filter id="filter1_f_2422_1963" x="256" y="520" width="1008" height="1006" filterUnits="userSpaceOnUse" color-interpolation-filters="sRGB">
<feFlood flood-opacity="0" result="BackgroundImageFix"/>
<feBlend mode="normal" in="SourceGraphic" in2="BackgroundImageFix" result="shape"/>
<feGaussianBlur stdDeviation="150" result="effect1_foregroundBlur_2422_1963"/>
</filter>
<linearGradient id="paint0_linear_2422_1963" x1="584.5" y1="283" x2="102.499" y2="1525" gradientUnits="userSpaceOnUse">
<stop stop-color="#AFAFAF" stop-opacity="0"/>
<stop offset="0.467278" stop-color="#B7B0A4"/>
<stop offset="0.533168" stop-color="#D9B373"/>
<stop offset="1" stop-color="#D9AF69" stop-opacity="0"/>
</linearGradient>
<clipPath id="clip0_2422_1963">
<rect width="1568" height="800" fill="white" transform="translate(800) rotate(90)"/>
</clipPath>
</defs>
</svg>
