<svg width="455" height="411" viewBox="0 0 455 411" fill="none" xmlns="http://www.w3.org/2000/svg">
<path d="M434 1H13C6.64873 1 1.5 6.14873 1.5 12.5V371C1.5 382.046 10.4543 391 21.5 391H96.7157C102.02 391 107.107 393.107 110.858 396.858L117.642 403.642C121.393 407.393 126.48 409.5 131.784 409.5H187.216C192.52 409.5 197.607 407.393 201.358 403.642L208.142 396.858C211.893 393.107 216.98 391 222.284 391H395.216C400.52 391 405.607 388.893 409.358 385.142L448.142 346.358C451.893 342.607 454 337.52 454 332.216V21C454 9.9543 445.046 1 434 1Z" stroke="url(#paint0_angular_2435_1911)" stroke-opacity="0.5" stroke-width="1.64096"/>
<mask id="mask0_2435_1911" style="mask-type:alpha" maskUnits="userSpaceOnUse" x="1" y="1" width="453" height="409">
<path d="M434 1H13C6.64873 1 1.5 6.14873 1.5 12.5V371C1.5 382.046 10.4543 391 21.5 391H96.7157C102.02 391 107.107 393.107 110.858 396.858L117.642 403.642C121.393 407.393 126.48 409.5 131.784 409.5H187.216C192.52 409.5 197.607 407.393 201.358 403.642L208.142 396.858C211.893 393.107 216.98 391 222.284 391H395.216C400.52 391 405.607 388.893 409.358 385.142L448.142 346.358C451.893 342.607 454 337.52 454 332.216V21C454 9.9543 445.046 1 434 1Z" fill="#D9D9D9"/>
</mask>
<g mask="url(#mask0_2435_1911)">
<g filter="url(#filter0_f_2435_1911)">
<ellipse cx="-7.23413" cy="360.267" rx="314.766" ry="316.267" fill="#D9B373" fill-opacity="0.25"/>
</g>
<g filter="url(#filter1_f_2435_1911)">
<ellipse cx="-28.3236" cy="338.622" rx="201.135" ry="202.08" fill="#D9B373" fill-opacity="0.2"/>
</g>
<g filter="url(#filter2_f_2435_1911)">
<ellipse cx="-38.0808" cy="332.326" rx="115.204" ry="115.834" fill="#D9B373" fill-opacity="0.3"/>
</g>
<g filter="url(#filter3_f_2435_1911)">
<ellipse cx="-38.3967" cy="326.66" rx="60.7498" ry="61.0646" fill="#D9B373" fill-opacity="0.4"/>
</g>
</g>
<defs>
<filter id="filter0_f_2435_1911" x="-1222" y="-856" width="2429.53" height="2432.54" filterUnits="userSpaceOnUse" color-interpolation-filters="sRGB">
<feFlood flood-opacity="0" result="BackgroundImageFix"/>
<feBlend mode="normal" in="SourceGraphic" in2="BackgroundImageFix" result="shape"/>
<feGaussianBlur stdDeviation="450" result="effect1_foregroundBlur_2435_1911"/>
</filter>
<filter id="filter1_f_2435_1911" x="-1129.46" y="-763.458" width="2202.27" height="2204.16" filterUnits="userSpaceOnUse" color-interpolation-filters="sRGB">
<feFlood flood-opacity="0" result="BackgroundImageFix"/>
<feBlend mode="normal" in="SourceGraphic" in2="BackgroundImageFix" result="shape"/>
<feGaussianBlur stdDeviation="450" result="effect1_foregroundBlur_2435_1911"/>
</filter>
<filter id="filter2_f_2435_1911" x="-653.285" y="-283.508" width="1230.41" height="1231.67" filterUnits="userSpaceOnUse" color-interpolation-filters="sRGB">
<feFlood flood-opacity="0" result="BackgroundImageFix"/>
<feBlend mode="normal" in="SourceGraphic" in2="BackgroundImageFix" result="shape"/>
<feGaussianBlur stdDeviation="250" result="effect1_foregroundBlur_2435_1911"/>
</filter>
<filter id="filter3_f_2435_1911" x="-399.146" y="-34.4043" width="721.5" height="722.129" filterUnits="userSpaceOnUse" color-interpolation-filters="sRGB">
<feFlood flood-opacity="0" result="BackgroundImageFix"/>
<feBlend mode="normal" in="SourceGraphic" in2="BackgroundImageFix" result="shape"/>
<feGaussianBlur stdDeviation="150" result="effect1_foregroundBlur_2435_1911"/>
</filter>
<radialGradient id="paint0_angular_2435_1911" cx="0" cy="0" r="1" gradientUnits="userSpaceOnUse" gradientTransform="translate(211.295 260.619) rotate(90) scale(259.619 222.705)">
<stop offset="0.166667" stop-color="#FFF1D6" stop-opacity="0.35"/>
<stop offset="0.395833" stop-color="#D9B373"/>
<stop offset="0.635417" stop-color="#FFF1D5" stop-opacity="0.35"/>
<stop offset="0.895833" stop-color="#D9B373"/>
<stop offset="1" stop-color="#D9B373"/>
</radialGradient>
</defs>
</svg>
