<svg width="438" height="407" viewBox="0 0 438 407" fill="none" xmlns="http://www.w3.org/2000/svg">
<path d="M407 1H21C9.95431 1 1 9.9543 1 21V365.5C1 376.546 9.9543 385.5 21 385.5H200.216C205.52 385.5 210.607 387.607 214.358 391.358L222.642 399.642C226.393 403.393 231.48 405.5 236.784 405.5H386.716C392.02 405.5 397.107 403.393 400.858 399.642L421.142 379.358C424.893 375.607 427 370.52 427 365.216V283.218C427 278.916 428.709 274.791 431.75 271.75C434.791 268.709 436.5 264.584 436.5 260.282V215.218C436.5 210.916 434.791 206.791 431.75 203.75C428.709 200.709 427 196.584 427 192.282V21C427 9.9543 418.046 1 407 1Z" stroke="url(#paint0_angular_2355_8317)" stroke-opacity="0.5" stroke-width="1.64096"/>
<mask id="mask0_2355_8317" style="mask-type:alpha" maskUnits="userSpaceOnUse" x="1" y="1" width="436" height="405">
<path d="M407 1H21C9.95431 1 1 9.9543 1 21V365.5C1 376.546 9.9543 385.5 21 385.5H200.216C205.52 385.5 210.607 387.607 214.358 391.358L222.642 399.642C226.393 403.393 231.48 405.5 236.784 405.5H386.716C392.02 405.5 397.107 403.393 400.858 399.642L421.142 379.358C424.893 375.607 427 370.52 427 365.216V283.218C427 278.916 428.709 274.791 431.75 271.75C434.791 268.709 436.5 264.584 436.5 260.282V215.218C436.5 210.916 434.791 206.791 431.75 203.75C428.709 200.709 427 196.584 427 192.282V21C427 9.9543 418.046 1 407 1Z" fill="#D9D9D9"/>
</mask>
<g mask="url(#mask0_2355_8317)">
<g filter="url(#filter0_f_2355_8317)">
<ellipse cx="420.5" cy="-25.7325" rx="370.5" ry="372.267" fill="#D9B373" fill-opacity="0.25"/>
</g>
<g filter="url(#filter1_f_2355_8317)">
<ellipse cx="395.676" cy="-51.2113" rx="236.749" ry="237.861" fill="#D9B373" fill-opacity="0.2"/>
</g>
<g filter="url(#filter2_f_2355_8317)">
<ellipse cx="384.191" cy="-58.6218" rx="135.603" ry="136.344" fill="#D9B373" fill-opacity="0.3"/>
</g>
<g filter="url(#filter3_f_2355_8317)">
<ellipse cx="383.82" cy="-65.29" rx="71.5065" ry="71.877" fill="#D9B373" fill-opacity="0.4"/>
</g>
</g>
<defs>
<filter id="filter0_f_2355_8317" x="-850" y="-1298" width="2541" height="2544.54" filterUnits="userSpaceOnUse" color-interpolation-filters="sRGB">
<feFlood flood-opacity="0" result="BackgroundImageFix"/>
<feBlend mode="normal" in="SourceGraphic" in2="BackgroundImageFix" result="shape"/>
<feGaussianBlur stdDeviation="450" result="effect1_foregroundBlur_2355_8317"/>
</filter>
<filter id="filter1_f_2355_8317" x="-741.073" y="-1189.07" width="2273.5" height="2275.72" filterUnits="userSpaceOnUse" color-interpolation-filters="sRGB">
<feFlood flood-opacity="0" result="BackgroundImageFix"/>
<feBlend mode="normal" in="SourceGraphic" in2="BackgroundImageFix" result="shape"/>
<feGaussianBlur stdDeviation="450" result="effect1_foregroundBlur_2355_8317"/>
</filter>
<filter id="filter2_f_2355_8317" x="-251.412" y="-694.966" width="1271.21" height="1272.69" filterUnits="userSpaceOnUse" color-interpolation-filters="sRGB">
<feFlood flood-opacity="0" result="BackgroundImageFix"/>
<feBlend mode="normal" in="SourceGraphic" in2="BackgroundImageFix" result="shape"/>
<feGaussianBlur stdDeviation="250" result="effect1_foregroundBlur_2355_8317"/>
</filter>
<filter id="filter3_f_2355_8317" x="12.3135" y="-437.167" width="743.013" height="743.754" filterUnits="userSpaceOnUse" color-interpolation-filters="sRGB">
<feFlood flood-opacity="0" result="BackgroundImageFix"/>
<feBlend mode="normal" in="SourceGraphic" in2="BackgroundImageFix" result="shape"/>
<feGaussianBlur stdDeviation="150" result="effect1_foregroundBlur_2355_8317"/>
</filter>
<radialGradient id="paint0_angular_2355_8317" cx="0" cy="0" r="1" gradientUnits="userSpaceOnUse" gradientTransform="translate(202.913 244.73) rotate(90) scale(243.73 214.338)">
<stop offset="0.166667" stop-color="#FFF1D6" stop-opacity="0"/>
<stop offset="0.395833" stop-color="#D9B373"/>
<stop offset="0.635417" stop-color="#FFF1D5" stop-opacity="0.18"/>
<stop offset="0.895833" stop-color="#D9B373"/>
<stop offset="1" stop-color="#D9B373"/>
</radialGradient>
</defs>
</svg>
